# xmcd CD database file
#
# Track frame offsets:
#	150
#	12064
#	28904
#	46343
#	61383
#	82010
#	95999
#	109764
#	126641
#	146343
#	158511
#	178556
#
# Disc length: 2545 seconds
#
# Revision: 0
# Processed by: cddbd v1.5PL3 Copyright (c) Steve Scherf et al.
# Submitted via: CDex 1.40Release
#
DISCID=a109ef0c
DTITLE=The Newcolours - MCMLXXXIX - At Home
DYEAR=2002
DGENRE=Pop
TTITLE0=Again and Again
TTITLE1=Do You Want to Pray?
TTITLE2=Burning Sky
TTITLE3=Trash Back to Edinburgh
TTITLE4=In Your Eyes
TTITLE5=Me or Him
TTITLE6=I Will Enjoy
TTITLE7=Too Bad
TTITLE8=A Dream of Yesterday
TTITLE9=Revolution
TTITLE10=Too Late - Spoilt Holydays
TTITLE11=Without U
EXTD=YEAR: 2002 ID3G: 13
EXTT0=
EXTT1=
EXTT2=
EXTT3=
EXTT4=
EXTT5=
EXTT6=
EXTT7=
EXTT8=
EXTT9=
EXTT10=
EXTT11=
PLAYORDER=
